<svg xmlns="http://www.w3.org/2000/svg" width="50" height="50" viewBox="0 0 50 50">
  <g id="Ellipse_1364" data-name="Ellipse 1364" fill="none" stroke="#bebebe" stroke-width="1">
    <circle cx="25" cy="25" r="25" stroke="none"/>
    <circle cx="25" cy="25" r="24.5" fill="none"/>
  </g>
</svg>
<svg id="Group_30592" data-name="Group 30592" xmlns="http://www.w3.org/2000/svg" width="50" height="50" viewBox="0 0 50 50">
  <g id="Ellipse_1364" data-name="Ellipse 1364" fill="none" stroke="#bebebe" stroke-width="1">
    <circle cx="25" cy="25" r="25" stroke="none"/>
    <circle cx="25" cy="25" r="24.5" fill="none"/>
  </g>
  <path id="Path_30339" data-name="Path 30339" d="M7.7,1.491a.608.608,0,0,1-.45-.169.608.608,0,0,1-.169-.45V-15.893L2.05-12.011a.634.634,0,0,1-.464.141.588.588,0,0,1-.408-.253l-.309-.394a.634.634,0,0,1-.141-.464.588.588,0,0,1,.253-.408L6.973-18a.9.9,0,0,1,.366-.169A2.228,2.228,0,0,1,7.7-18.2h.534a.608.608,0,0,1,.45.169.608.608,0,0,1,.169.45V.872a.608.608,0,0,1-.169.45.608.608,0,0,1-.45.169Z" transform="translate(18.155 33.691)" fill="#fff"/>
</svg>
<svg id="Group_27367" data-name="Group 27367" xmlns="http://www.w3.org/2000/svg" xmlns:xlink="http://www.w3.org/1999/xlink" width="35" height="20" viewBox="0 0 35 20">
  <defs>
    <clipPath id="clip-path">
      <rect id="Rectangle_4581" data-name="Rectangle 4581" width="35" height="20" fill="#fff"/>
    </clipPath>
  </defs>
  <g id="Group_27366" data-name="Group 27366" clip-path="url(#clip-path)">
   
  </g>
</svg>
