<svg xmlns="http://www.w3.org/2000/svg" width="16" height="20" viewBox="0 0 16 20">
  <path id="Icon_metro-apple" data-name="Icon metro-apple" d="M18.8,12.555A4.531,4.531,0,0,1,20.92,8.747a4.562,4.562,0,0,0-3.593-1.982c-1.53-.158-2.986.917-3.762.917s-1.973-.894-3.242-.87A4.8,4.8,0,0,0,6.258,9.319C4.525,12.38,5.814,16.914,7.5,19.4c.825,1.215,1.809,2.58,3.1,2.531,1.244-.051,1.715-.819,3.219-.819s1.927.819,3.244.794c1.339-.025,2.187-1.238,3.007-2.457A11.116,11.116,0,0,0,21.436,16.6,4.406,4.406,0,0,1,18.8,12.555ZM16.325,5.122a4.459,4.459,0,0,0,1.022-3.194,4.379,4.379,0,0,0-2.894,1.515A4.239,4.239,0,0,0,13.41,6.537,3.62,3.62,0,0,0,16.325,5.122Z" transform="translate(-5.436 -1.928)" fill="#fff"/>
</svg>
