<svg id="Group_30590" data-name="Group 30590" xmlns="http://www.w3.org/2000/svg" xmlns:xlink="http://www.w3.org/1999/xlink" width="50" height="50" viewBox="0 0 50 50">
  <defs>
    <clipPath id="clip-path">
      <rect id="Rectangle_4538" data-name="Rectangle 4538" width="21.667" height="25.833" fill="#fff"/>
    </clipPath>
  </defs>
  <g id="Ellipse_1364" data-name="Ellipse 1364" fill="none" stroke="#fff" stroke-width="1">
    <circle cx="25" cy="25" r="25" stroke="none"/>
    <circle cx="25" cy="25" r="24.5" fill="none"/>
  </g>
  <g id="Group_27304" data-name="Group 27304" transform="translate(14.167 12.5)">
    <g id="Group_27307" data-name="Group 27307" clip-path="url(#clip-path)">
      <path id="Path_30320" data-name="Path 30320" d="M21.109,25.833H.558A.559.559,0,0,1,0,25.274V.594A.558.558,0,0,1,.556.035L16.731,0h0a.558.558,0,0,1,.558.559V4.542L21.1,4.508h.005a.559.559,0,0,1,.558.559V25.274a.558.558,0,0,1-.558.559M1.115,24.716H20.551V5.631l-3.814.035a.55.55,0,0,1-.4-.162.561.561,0,0,1-.165-.4V1.119L1.115,1.152Z" transform="translate(0.343 0)" fill="#fff"/>
      <path id="Path_30321" data-name="Path 30321" d="M42.362,5.666a.559.559,0,0,1-.558-.559V.559a.557.557,0,0,1,.958-.39l4.377,4.508a.559.559,0,0,1-.395.949l-4.377.04Zm.558-3.731V4.543l2.51-.023Z" transform="translate(-25.286 0)" fill="#fff"/>
      <path id="Path_30322" data-name="Path 30322" d="M23.784,14.994a2.706,2.706,0,1,0,2.7,2.706,2.707,2.707,0,0,0-2.7-2.706m0,4.841a2.134,2.134,0,1,1,2.13-2.134,2.134,2.134,0,0,1-2.13,2.134" transform="translate(-12.582 -9.18)" fill="#fff"/>
      <path id="Path_30323" data-name="Path 30323" d="M24.559,17.172v-.986a.172.172,0,0,1,.034-.1l.578-.8a.751.751,0,0,0,0-.881l-.578-.8a.172.172,0,0,1-.034-.1v-.986a.748.748,0,0,0-.515-.713l-.936-.305a.161.161,0,0,1-.087-.063l-.579-.8a.743.743,0,0,0-.835-.271l-.936.3a.166.166,0,0,1-.109,0l-.936-.3a.742.742,0,0,0-.835.271l-.578.8a.174.174,0,0,1-.089.063l-.934.305a.747.747,0,0,0-.518.713V13.5a.184.184,0,0,1-.032.1l-.578.8a.745.745,0,0,0,0,.881l.578.8a.184.184,0,0,1,.032.1v.986a.747.747,0,0,0,.518.713l.813.263-1.745,4.461a.288.288,0,0,0,.059.3.282.282,0,0,0,.3.074l1.3-.44.375,1.064a.287.287,0,0,0,.266.193h0a.289.289,0,0,0,.269-.185l1.735-4.585L22.3,23.616a.286.286,0,0,0,.266.185h0a.285.285,0,0,0,.265-.193l.375-1.064,1.3.44a.283.283,0,0,0,.3-.074.287.287,0,0,0,.059-.3l-1.733-4.428.912-.3a.748.748,0,0,0,.515-.713m-5.99,5.51-.209-.593a.281.281,0,0,0-.269-.19.252.252,0,0,0-.091.015l-.989.334,1.437-3.669.342.473a.742.742,0,0,0,.6.309.753.753,0,0,0,.232-.036l.246-.08Zm5.541-.435-.99-.334a.283.283,0,0,0-.359.175l-.209.593L21.235,19.2l.371.12a.745.745,0,0,0,.835-.273l.272-.373Zm-.122-5.075a.176.176,0,0,1-.122.168l-.936.305a.738.738,0,0,0-.306.192.992.992,0,0,0-.067.08l-.515.712-.063.086a.177.177,0,0,1-.2.065l-.1-.032-.833-.273a.709.709,0,0,0-.1-.025.687.687,0,0,0-.323.016.2.2,0,0,0-.036.009l-.891.29-.046.015a.178.178,0,0,1-.2-.065l-.029-.04-.548-.757a.287.287,0,0,0-.025-.031.739.739,0,0,0-.35-.242l-.936-.305a.176.176,0,0,1-.122-.168v-.986a.747.747,0,0,0-.143-.44l-.578-.8a.181.181,0,0,1,0-.208l.578-.8a.741.741,0,0,0,.143-.439v-.986a.179.179,0,0,1,.122-.169l.936-.3a.744.744,0,0,0,.373-.273l.579-.8a.175.175,0,0,1,.142-.074.184.184,0,0,1,.055.009l.936.305a.736.736,0,0,0,.462,0l.934-.305a.174.174,0,0,1,.2.065l.578.8a.754.754,0,0,0,.373.273l.936.3a.179.179,0,0,1,.122.169V13.5a.751.751,0,0,0,.143.44l.578.8a.175.175,0,0,1,0,.208l-.578.8a.747.747,0,0,0-.143.44Z" transform="translate(-9.414 -6.324)" fill="#fff"/>
      <path id="Path_30324" data-name="Path 30324" d="M22.451,50.121H7.181a.572.572,0,0,1,0-1.144h15.27a.572.572,0,0,1,0,1.144" transform="translate(-3.709 -29.986)" fill="#fff"/>
      <path id="Path_30325" data-name="Path 30325" d="M22.451,56.9H7.181a.572.572,0,0,1,0-1.144h15.27a.572.572,0,0,1,0,1.144" transform="translate(-3.709 -34.135)" fill="#fff"/>
    </g>
  </g>
</svg>
