<svg xmlns="http://www.w3.org/2000/svg" width="18.207" height="16" viewBox="0 0 18.207 16">
  <path id="Icon_simple-wechat" data-name="Icon simple-wechat" d="M17.858,11.662A5.183,5.183,0,0,0,15.512,9.13a6.137,6.137,0,0,0-5.787.024A5.031,5.031,0,0,0,7.161,12.5a4.508,4.508,0,0,0,.516,3.182,5.529,5.529,0,0,0,3.771,2.609,6.574,6.574,0,0,0,3.291-.229c.639.262,1.208.686,1.827,1-.16-.568-.331-1.129-.513-1.688a5.363,5.363,0,0,0,1.7-1.991A4.547,4.547,0,0,0,17.858,11.662Zm-7.528-7.6A7.292,7.292,0,0,0,4.044,3.54a6.47,6.47,0,0,0-3.3,2.747,5.411,5.411,0,0,0-.606,3.95,6.034,6.034,0,0,0,2.475,3.545c-.228.683-.444,1.365-.649,2.052.74-.41,1.479-.838,2.22-1.254A7.816,7.816,0,0,0,6.963,15a5.224,5.224,0,0,1-.193-2.37A5.112,5.112,0,0,1,8.282,9.771,6.33,6.33,0,0,1,13.21,8.059a6.046,6.046,0,0,0-2.9-4h.02Zm1.315,8.024a.736.736,0,0,1-1.225.283.819.819,0,0,1,.269-1.3.78.78,0,0,1,.956,1.021Zm3.637.074a.741.741,0,0,1-1.2.217,1.235,1.235,0,0,1-.261-.586c.079-.368.319-.749.705-.767a.8.8,0,0,1,.74,1.137h.011ZM9.854,6.971A.933.933,0,0,1,8.34,7.7,1.015,1.015,0,0,1,8.6,6.01a.943.943,0,0,1,1.252.952Zm-4.6.2a.921.921,0,0,1-1.476.545A1.025,1.025,0,0,1,4.043,6,.965.965,0,0,1,5.257,7.167Z" transform="translate(0.001 -3.06)" fill="#fff"/>
</svg>
