<svg id="Logo" xmlns="http://www.w3.org/2000/svg" width="132" height="64" viewBox="0 0 132 64">
  <rect id="Rectangle_4498" data-name="Rectangle 4498" width="132" height="43.622"/>
  <rect id="Rectangle_4499" data-name="Rectangle 4499" width="132" height="20.379" transform="translate(0 43.621)" fill="#d00000"/>
  <path id="Path_29314" data-name="Path 29314" d="M22.8,158.714v2.01a6.3,6.3,0,0,0,.257,2.592,2.238,2.238,0,0,0,1.363.254q1.095,0,1.38-.339a1.31,1.31,0,0,0,.3-.677q.023-.147.1-.147t.068.17A4.033,4.033,0,0,1,26.1,163.7a.39.39,0,0,1-.285.294,4.228,4.228,0,0,1-.433.011q-.947,0-1.9-.034t-1.158-.034l-.468.017q-.445.017-.65.017-.183,0-.183-.091c0-.045.036-.068.108-.068a1.741,1.741,0,0,0,.325-.045q.262-.056.331-.621.057-.441.057-2.451v-1.987q0-2.067-.023-2.439a.617.617,0,0,0-.49-.643,1.9,1.9,0,0,0-.388-.034c-.061,0-.091-.023-.091-.068,0-.06.061-.091.182-.091q.319,0,.821.017l.468.017.507-.017q.519-.017.724-.017c.121,0,.183.03.183.091q0,.056-.205.079l-.262.023q-.41.067-.445.643-.023.372-.023,2.439" transform="translate(-14.137 -105.897)" fill="#fff"/>
  <path id="Path_29315" data-name="Path 29315" d="M39.571,160.508v-1.987q0-2.067-.023-2.439a.618.618,0,0,0-.49-.644,1.9,1.9,0,0,0-.388-.034c-.061,0-.091-.023-.091-.068q0-.09.182-.091.319,0,.821.017l.468.017q2.372,0,2.612-.011a2.508,2.508,0,0,0,.491-.056.188.188,0,0,0,.074-.028.188.188,0,0,1,.085-.028c.031,0,.046.034.046.1a1.415,1.415,0,0,1-.034.192q-.034.158-.057.338-.012.305-.057.745c-.015.083-.042.124-.08.124q-.091,0-.091-.147a1.036,1.036,0,0,0-.068-.406q-.137-.305-.81-.384-.308-.034-1.562-.034-.069,0-.069.113v3.117c0,.076.023.113.069.113q1.551,0,1.814-.023a.87.87,0,0,0,.547-.17c.084-.09.137-.135.16-.135.038,0,.057.03.057.091q0,.022-.034.2-.034.215-.057.429-.045.474-.046.706t-.08.231c-.053,0-.08-.034-.08-.1a1.274,1.274,0,0,0-.046-.373q-.1-.338-.593-.4-.536-.056-1.631-.056a.07.07,0,0,0-.08.079v2.925a.96.96,0,0,0,.257.757,2.117,2.117,0,0,0,1.067.17,3.234,3.234,0,0,0,1.095-.124.984.984,0,0,0,.513-.813c.023-.113.057-.17.1-.17s.069.057.069.17a4.4,4.4,0,0,1-.148,1.1q-.057.214-.16.254a1.61,1.61,0,0,1-.456.04q-1.038,0-1.934-.034l-.884-.034-.451.017q-.462.017-.667.017-.183,0-.183-.09c0-.045.036-.068.108-.068a1.737,1.737,0,0,0,.325-.045q.263-.056.331-.621.057-.44.057-2.45" transform="translate(-26.159 -105.704)" fill="#fff"/>
  <path id="Path_29316" data-name="Path 29316" d="M55.8,162.4l2.589-7.013q.16-.44.251-.44t.251.407q.981,2.552,2.658,6.809.456,1.129,1.061,1.276a1.647,1.647,0,0,0,.376.045q.114,0,.114.068,0,.09-.228.091-1.118,0-1.791-.023-.342-.011-.342-.079c0-.038.026-.064.08-.079q.171-.045.068-.3l-1.061-2.778a.11.11,0,0,0-.1-.068H57.27a.119.119,0,0,0-.114.091l-.684,2a2.439,2.439,0,0,0-.16.757q0,.328.434.327h.114c.076,0,.114.023.114.068q0,.09-.171.091t-.5-.017c-.228-.011-.358-.017-.388-.017l-.491.017q-.479.017-.8.017-.217,0-.217-.091c0-.045.034-.068.1-.068a2.487,2.487,0,0,0,.331-.023q.593-.079.958-1.061m1.6-2.5h2.179c.046,0,.061-.026.046-.079l-1.084-3.049q-.046-.124-.091-.124t-.08.124l-1,3.049c-.015.053,0,.079.034.079" transform="translate(-36.891 -105.56)" fill="#fff"/>
  <path id="Path_29317" data-name="Path 29317" d="M82.6,160.7v-1.987q0-2.067-.023-2.439a.617.617,0,0,0-.49-.643,1.9,1.9,0,0,0-.388-.034c-.061,0-.091-.023-.091-.068,0-.06.061-.091.182-.091q.319,0,.821.017l.468.017q1.129-.033,1.54-.034a13.732,13.732,0,0,1,2.2.124,4.21,4.21,0,0,1,2.373,1.163,3.93,3.93,0,0,1,1.107,2.869,4.431,4.431,0,0,1-1.238,3.2,4.562,4.562,0,0,1-3.45,1.287q-.593,0-1.586-.068t-.947-.068l-.451.017q-.462.017-.667.017-.183,0-.183-.091c0-.045.036-.068.108-.068a1.741,1.741,0,0,0,.325-.045q.262-.056.331-.621.057-.441.057-2.451m.958-2.168v1.4q0,1.954.023,2.45a2.387,2.387,0,0,0,.125.858q.319.452,1.939.452a3.719,3.719,0,0,0,2.714-1.05,2.746,2.746,0,0,0,.673-1.175,4.812,4.812,0,0,0,.24-1.524,3.949,3.949,0,0,0-1.095-2.846,3.843,3.843,0,0,0-1.757-1.061,7.5,7.5,0,0,0-1.974-.214,2.307,2.307,0,0,0-.724.068.24.24,0,0,0-.154.237q-.012.508-.011,2.405" transform="translate(-55.337 -105.897)" fill="#fff"/>
  <path id="Path_29318" data-name="Path 29318" d="M110.609,160.508v-1.987q0-2.067-.023-2.439a.618.618,0,0,0-.49-.644,1.9,1.9,0,0,0-.388-.034c-.061,0-.091-.023-.091-.068,0-.06.061-.091.182-.091q.319,0,.821.017l.468.017q2.372,0,2.612-.011a2.508,2.508,0,0,0,.491-.056.188.188,0,0,0,.074-.028.188.188,0,0,1,.085-.028c.031,0,.046.034.046.1a1.414,1.414,0,0,1-.034.192q-.034.158-.057.338-.012.305-.057.745c-.015.083-.042.124-.08.124q-.091,0-.091-.147a1.036,1.036,0,0,0-.068-.406q-.137-.305-.81-.384-.308-.034-1.562-.034-.069,0-.069.113v3.117c0,.076.023.113.069.113q1.551,0,1.814-.023a.87.87,0,0,0,.547-.17c.084-.09.137-.135.16-.135.038,0,.057.03.057.091q0,.022-.034.2-.034.215-.057.429-.045.474-.046.706t-.08.231q-.08,0-.08-.1a1.274,1.274,0,0,0-.046-.373q-.1-.338-.593-.4-.536-.056-1.631-.056a.07.07,0,0,0-.08.079v2.925a.96.96,0,0,0,.257.757,2.117,2.117,0,0,0,1.067.17,3.234,3.234,0,0,0,1.095-.124.984.984,0,0,0,.513-.813c.023-.113.057-.17.1-.17s.069.057.069.17a4.4,4.4,0,0,1-.148,1.1q-.057.214-.16.254a1.61,1.61,0,0,1-.456.04q-1.038,0-1.934-.034l-.884-.034-.451.017q-.462.017-.667.017-.183,0-.183-.09,0-.068.108-.068a1.736,1.736,0,0,0,.325-.045q.263-.056.331-.621.057-.44.057-2.45" transform="translate(-74.326 -105.704)" fill="#fff"/>
  <path id="Path_29319" data-name="Path 29319" d="M128.143,160.7v-1.987q0-2.067-.023-2.439a.617.617,0,0,0-.49-.643,1.9,1.9,0,0,0-.388-.034c-.061,0-.091-.023-.091-.068q0-.09.183-.091.319,0,.821.017l.468.017.587-.017q.553-.017.758-.017a3.6,3.6,0,0,1,2.088.5,1.792,1.792,0,0,1,.787,1.536,3.592,3.592,0,0,1-1.38,2.609q1.129,1.423,1.289,1.626.65.813,1.084,1.265a2.454,2.454,0,0,0,1.391.813,2.912,2.912,0,0,0,.445.034c.069,0,.1.023.1.068,0,.06-.091.091-.274.091h-.81a2.673,2.673,0,0,1-1.221-.215,2.477,2.477,0,0,1-.707-.61q-.194-.215-.833-1.05-.5-.689-1.243-1.671a.207.207,0,0,0-.148-.068h-1.4c-.053,0-.08.03-.08.09v.269q0,1.941.057,2.434.069.561.445.617a4.029,4.029,0,0,0,.513.045c.061,0,.091.023.091.068,0,.06-.061.091-.183.091q-.388,0-.918-.017t-.485-.017q-.787.034-1.072.034-.182,0-.182-.091c0-.045.036-.068.108-.068a1.741,1.741,0,0,0,.325-.045q.262-.056.331-.621.057-.441.057-2.451m.912-4.7V159.7a.147.147,0,0,0,.08.136,2.664,2.664,0,0,0,1.2.18,1.511,1.511,0,0,0,.855-.215,1.958,1.958,0,0,0,.7-1.739,2.417,2.417,0,0,0-.53-1.66,1.83,1.83,0,0,0-1.443-.6,3,3,0,0,0-.764.068.131.131,0,0,0-.091.135" transform="translate(-86.214 -105.897)" fill="#fff"/>
  <path id="Path_29320" data-name="Path 29320" d="M155.252,163.8a3.471,3.471,0,0,1-1.528-.305q-.171-.079-.171-.429a7.548,7.548,0,0,1,.069-1.287c.015-.06.042-.09.08-.09s.08.042.08.125a2.177,2.177,0,0,0,.034.42q.24,1.16,1.688,1.16a1.608,1.608,0,0,0,1.232-.486,1.419,1.419,0,0,0,.4-1.018,1.779,1.779,0,0,0-.279-1,5.161,5.161,0,0,0-1.032-1.035l-.514-.418a4.928,4.928,0,0,1-1.2-1.312,2.3,2.3,0,0,1-.285-1.142,1.867,1.867,0,0,1,.638-1.476,2.523,2.523,0,0,1,1.722-.56,4.549,4.549,0,0,1,1.061.12,1.812,1.812,0,0,0,.4.06c.076,0,.114.026.114.078q0-.056-.023.331t-.023.857q0,.258-.08.258t-.091-.146a1.423,1.423,0,0,0-.148-.56,1.494,1.494,0,0,0-1.426-.593,1.453,1.453,0,0,0-1,.355,1.211,1.211,0,0,0-.4.953,1.442,1.442,0,0,0,.285.874,5.931,5.931,0,0,0,1.107,1.021l.319.248a5.356,5.356,0,0,1,1.334,1.376,2.433,2.433,0,0,1,.331,1.274,2.159,2.159,0,0,1-.97,1.872,2.959,2.959,0,0,1-1.722.474" transform="translate(-104.116 -105.56)" fill="#fff"/>
  <path id="Path_29321" data-name="Path 29321" d="M177.228,158.714V160.7q0,1.954.057,2.451.069.565.445.621a4.03,4.03,0,0,0,.514.045c.061,0,.091.023.091.068,0,.06-.061.091-.183.091q-.388,0-.918-.017t-.485-.017l-.45.017q-.462.017-.667.017-.183,0-.183-.091c0-.045.036-.068.108-.068a1.747,1.747,0,0,0,.325-.045q.262-.056.331-.621.057-.441.057-2.451v-1.186a.06.06,0,0,0-.069-.068h-4.836a.06.06,0,0,0-.069.068V160.7q0,1.954.057,2.451.069.565.445.621a4.03,4.03,0,0,0,.513.045c.061,0,.091.023.091.068q0,.09-.182.091-.388,0-.918-.017t-.485-.017l-.451.017q-.462.017-.667.017-.183,0-.183-.091c0-.045.036-.068.109-.068a1.741,1.741,0,0,0,.325-.045q.263-.056.331-.621.057-.441.057-2.451v-1.987q0-2.067-.023-2.439a.617.617,0,0,0-.49-.643,1.9,1.9,0,0,0-.388-.034c-.061,0-.091-.023-.091-.068q0-.09.182-.091.319,0,.821.017l.468.017.45-.017q.462-.017.667-.017.183,0,.183.091c0,.045-.031.068-.091.068a1.838,1.838,0,0,0-.285.034q-.388.067-.422.643-.023.372-.023,2.439v.237a.06.06,0,0,0,.069.068H176.2a.06.06,0,0,0,.069-.068v-.237q0-2.067-.023-2.439a.617.617,0,0,0-.49-.643,1.9,1.9,0,0,0-.388-.034c-.061,0-.091-.023-.091-.068,0-.06.061-.091.183-.091q.319,0,.821.017l.467.017.451-.017q.462-.017.667-.017.183,0,.183.091c0,.045-.031.068-.091.068a1.837,1.837,0,0,0-.285.034q-.388.067-.422.643-.023.372-.023,2.439" transform="translate(-114.825 -105.897)" fill="#fff"/>
  <path id="Path_29322" data-name="Path 29322" d="M201.6,158.714V160.7q0,1.954.057,2.451.069.565.445.621a4.024,4.024,0,0,0,.513.045c.061,0,.091.023.091.068q0,.09-.182.091-.388,0-.918-.017t-.485-.017l-.451.017q-.462.017-.667.017-.183,0-.183-.091c0-.045.036-.068.108-.068a1.741,1.741,0,0,0,.325-.045q.262-.056.331-.621.057-.441.057-2.451v-1.987q0-2.067-.023-2.439-.034-.542-.388-.632a1.576,1.576,0,0,0-.354-.045c-.061,0-.091-.023-.091-.068q0-.09.182-.091.228,0,.7.017l.456.017.45-.017q.462-.017.667-.017.183,0,.183.091c0,.045-.031.068-.091.068a1.838,1.838,0,0,0-.285.034q-.388.067-.422.643-.023.372-.023,2.439" transform="translate(-135.463 -105.897)" fill="#fff"/>
  <path id="Path_29323" data-name="Path 29323" d="M211.939,160.7v-1.987q0-2.067-.023-2.439a.618.618,0,0,0-.49-.644,1.9,1.9,0,0,0-.388-.034c-.061,0-.091-.023-.091-.068q0-.09.182-.091c.205,0,.474.006.8.017l.485.017q.091,0,.616-.017t.821-.017a3.01,3.01,0,0,1,2.122.644,1.757,1.757,0,0,1,.571,1.344,2.544,2.544,0,0,1-.793,1.942,2.822,2.822,0,0,1-2.013.746,1.529,1.529,0,0,1-.24-.011c-.084,0-.126-.026-.126-.079s.1-.1.308-.1a1.981,1.981,0,0,0,1.4-.531,1.718,1.718,0,0,0,.571-1.31,2.361,2.361,0,0,0-.639-1.739,2.1,2.1,0,0,0-1.562-.564,1.336,1.336,0,0,0-.491.068c-.061.023-.091.094-.091.215V160.7q0,1.953.057,2.45.069.565.445.621a4.013,4.013,0,0,0,.513.045c.061,0,.091.023.091.068s-.061.09-.183.09c-.258,0-.565-.005-.918-.017s-.515-.017-.485-.017l-.433.017q-.456.017-.662.017-.183,0-.183-.09,0-.068.108-.068a1.741,1.741,0,0,0,.325-.045q.263-.056.331-.621.057-.44.057-2.45" transform="translate(-143.032 -105.897)" fill="#fff"/>
  <path id="Path_29324" data-name="Path 29324" d="M245.143,163.8a5.463,5.463,0,0,1-3.77-1.225,4.545,4.545,0,0,1-1.111-4.783,4.186,4.186,0,0,1,1.018-1.637,4.758,4.758,0,0,1,3.489-1.208,9.3,9.3,0,0,1,1.659.135,10.561,10.561,0,0,0,1.167.17q.149.011.149.124a2.077,2.077,0,0,1-.032.215,3.866,3.866,0,0,0-.048.418q-.012.5-.034,1.163c-.008.158-.042.237-.1.237s-.091-.079-.091-.237a1.427,1.427,0,0,0-.479-1.152,3.469,3.469,0,0,0-2.281-.644,3.682,3.682,0,0,0-2.624.825,3.9,3.9,0,0,0-1.027,2.947,4.05,4.05,0,0,0,1.141,2.879,3.95,3.95,0,0,0,2.977,1.254,2.733,2.733,0,0,0,1.985-.564,1.787,1.787,0,0,0,.422-.949c.023-.113.061-.17.114-.17s.08.056.08.17q0,.09-.08.61a6.776,6.776,0,0,1-.165.83.494.494,0,0,1-.3.333,5.89,5.89,0,0,1-2.053.26" transform="translate(-162.732 -105.56)" fill="#fff"/>
  <path id="Path_29325" data-name="Path 29325" d="M265.1,159.358a4.373,4.373,0,0,1,1.072-2.891,4.217,4.217,0,0,1,3.422-1.524,4.586,4.586,0,0,1,3.206,1.129,4,4,0,0,1,1.277,3.105,4.541,4.541,0,0,1-1.243,3.252,4.346,4.346,0,0,1-3.308,1.366,4.18,4.18,0,0,1-3.388-1.457,4.5,4.5,0,0,1-1.038-2.981m1.084-.316a4.6,4.6,0,0,0,1.061,3.151,3.27,3.27,0,0,0,2.589,1.174,2.951,2.951,0,0,0,1.962-.7,3.957,3.957,0,0,0,1.186-3.173,4.429,4.429,0,0,0-1.061-3.105,3.127,3.127,0,0,0-2.406-1.061,3.175,3.175,0,0,0-2.384.926,3.883,3.883,0,0,0-.947,2.789" transform="translate(-179.753 -105.56)" fill="#fff"/>
  <path id="Path_29326" data-name="Path 29326" d="M295.928,158.714v2.01a6.3,6.3,0,0,0,.257,2.592,2.237,2.237,0,0,0,1.363.254q1.095,0,1.38-.339a1.31,1.31,0,0,0,.3-.677q.023-.147.1-.147c.045,0,.068.056.068.17a4.032,4.032,0,0,1-.171,1.129.39.39,0,0,1-.285.294,4.228,4.228,0,0,1-.433.011q-.947,0-1.9-.034t-1.158-.034l-.468.017q-.445.017-.65.017-.183,0-.183-.091c0-.045.036-.068.108-.068a1.741,1.741,0,0,0,.325-.045q.262-.056.331-.621.058-.441.057-2.451v-1.987q0-2.067-.023-2.439a.617.617,0,0,0-.49-.643,1.9,1.9,0,0,0-.388-.034c-.061,0-.091-.023-.091-.068,0-.06.061-.091.182-.091q.319,0,.821.017l.468.017.507-.017q.519-.017.724-.017c.121,0,.183.03.183.091q0,.056-.205.079l-.262.023q-.41.067-.445.643-.023.372-.023,2.439" transform="translate(-199.332 -105.897)" fill="#fff"/>
  <path id="Path_29327" data-name="Path 29327" d="M313.657,158.714v2.01a6.3,6.3,0,0,0,.257,2.592,2.238,2.238,0,0,0,1.363.254q1.095,0,1.38-.339a1.31,1.31,0,0,0,.3-.677q.023-.147.1-.147c.045,0,.068.056.068.17a4.031,4.031,0,0,1-.171,1.129.39.39,0,0,1-.285.294,4.228,4.228,0,0,1-.433.011q-.947,0-1.9-.034t-1.158-.034l-.468.017q-.445.017-.65.017-.183,0-.183-.091,0-.067.108-.068a1.74,1.74,0,0,0,.325-.045q.262-.056.331-.621.057-.441.057-2.451v-1.987q0-2.067-.023-2.439a.617.617,0,0,0-.49-.643,1.9,1.9,0,0,0-.388-.034c-.061,0-.091-.023-.091-.068,0-.06.06-.091.182-.091q.319,0,.821.017l.468.017.507-.017q.519-.017.724-.017.183,0,.183.091,0,.056-.205.079l-.262.023q-.41.067-.445.643-.023.372-.023,2.439" transform="translate(-211.352 -105.897)" fill="#fff"/>
  <path id="Path_29328" data-name="Path 29328" d="M330.427,160.508v-1.987q0-2.067-.023-2.439a.618.618,0,0,0-.49-.644,1.9,1.9,0,0,0-.388-.034c-.061,0-.091-.023-.091-.068,0-.06.061-.091.182-.091q.319,0,.821.017l.468.017q2.372,0,2.612-.011a2.508,2.508,0,0,0,.491-.056.188.188,0,0,0,.074-.028.188.188,0,0,1,.085-.028c.031,0,.046.034.046.1a1.417,1.417,0,0,1-.034.192q-.034.158-.057.338-.012.305-.057.745c-.015.083-.042.124-.08.124q-.091,0-.091-.147a1.036,1.036,0,0,0-.068-.406q-.137-.305-.81-.384-.308-.034-1.562-.034-.069,0-.069.113v3.117c0,.076.023.113.069.113q1.551,0,1.814-.023a.87.87,0,0,0,.547-.17c.084-.09.137-.135.16-.135.038,0,.057.03.057.091,0,.015-.011.083-.034.2q-.034.215-.057.429-.045.474-.046.706t-.08.231c-.053,0-.08-.034-.08-.1a1.272,1.272,0,0,0-.046-.373q-.1-.338-.593-.4-.536-.056-1.631-.056a.07.07,0,0,0-.08.079v2.925a.96.96,0,0,0,.257.757,2.117,2.117,0,0,0,1.067.17,3.234,3.234,0,0,0,1.095-.124.984.984,0,0,0,.513-.813c.023-.113.057-.17.1-.17s.069.057.069.17a4.4,4.4,0,0,1-.148,1.1q-.057.214-.16.254a1.61,1.61,0,0,1-.456.04q-1.038,0-1.934-.034l-.884-.034-.451.017q-.462.017-.667.017-.183,0-.183-.09,0-.068.108-.068a1.736,1.736,0,0,0,.325-.045q.263-.056.331-.621.057-.44.057-2.45" transform="translate(-223.374 -105.704)" fill="#fff"/>
  <path id="Path_29329" data-name="Path 29329" d="M353.141,162.678v-1.92a2.731,2.731,0,0,0-.086-.881.6.6,0,0,0-.428-.282,1.618,1.618,0,0,0-.388-.034c-.061,0-.091-.023-.091-.068,0-.06.061-.091.183-.091q.319,0,.821.017l.467.017.451-.017q.462-.017.667-.017.183,0,.183.091c0,.045-.03.068-.091.068a1.838,1.838,0,0,0-.285.034q-.388.067-.422.644-.023.372-.023,1.175v1.265a2.664,2.664,0,0,1-.023.469.236.236,0,0,1-.125.141,5.087,5.087,0,0,1-2.419.508,5.552,5.552,0,0,1-3.753-1.209,3.594,3.594,0,0,1-.935-1.31,4.5,4.5,0,0,1-.422-1.909,4.664,4.664,0,0,1,.57-2.3,3.75,3.75,0,0,1,1.334-1.411,5.716,5.716,0,0,1,3.034-.711,8.528,8.528,0,0,1,1.745.181,5.7,5.7,0,0,0,.924.124q.137.011.137.1,0-.045-.04.435t-.04,1.169q0,.237-.1.237-.069,0-.08-.171a1.539,1.539,0,0,0-.24-.75,1.86,1.86,0,0,0-.89-.625,4.952,4.952,0,0,0-1.791-.3,3.825,3.825,0,0,0-2.441.746,3.423,3.423,0,0,0-1.129,2.872,4.711,4.711,0,0,0,.456,2.024,3.735,3.735,0,0,0,.753,1.108,4.157,4.157,0,0,0,2.989,1.21,2.749,2.749,0,0,0,1.3-.237.418.418,0,0,0,.228-.4" transform="translate(-234.892 -105.56)" fill="#fff"/>
  <path id="Path_29330" data-name="Path 29330" d="M374.447,160.508v-1.987q0-2.067-.023-2.439a.618.618,0,0,0-.49-.644,1.9,1.9,0,0,0-.388-.034c-.061,0-.091-.023-.091-.068q0-.09.182-.091.319,0,.821.017l.468.017q2.372,0,2.612-.011a2.509,2.509,0,0,0,.491-.056.188.188,0,0,0,.074-.028.188.188,0,0,1,.085-.028q.046,0,.046.1a1.422,1.422,0,0,1-.034.192q-.034.158-.057.338-.012.305-.057.745c-.015.083-.042.124-.08.124q-.091,0-.091-.147a1.037,1.037,0,0,0-.068-.406q-.137-.305-.81-.384-.308-.034-1.562-.034-.069,0-.069.113v3.117c0,.076.023.113.069.113q1.551,0,1.814-.023a.87.87,0,0,0,.547-.17c.084-.09.137-.135.16-.135.038,0,.057.03.057.091q0,.022-.034.2-.034.215-.057.429-.045.474-.046.706t-.08.231q-.08,0-.08-.1a1.274,1.274,0,0,0-.046-.373q-.1-.338-.593-.4-.536-.056-1.631-.056a.07.07,0,0,0-.08.079v2.925a.96.96,0,0,0,.257.757,2.117,2.117,0,0,0,1.067.17,3.234,3.234,0,0,0,1.095-.124.984.984,0,0,0,.513-.813c.023-.113.057-.17.1-.17s.069.057.069.17a4.4,4.4,0,0,1-.148,1.1q-.057.214-.16.254a1.61,1.61,0,0,1-.456.04q-1.038,0-1.934-.034l-.884-.034-.451.017q-.462.017-.667.017-.183,0-.183-.09c0-.045.036-.068.108-.068a1.736,1.736,0,0,0,.325-.045q.263-.056.331-.621.057-.44.057-2.45" transform="translate(-253.221 -105.704)" fill="#fff"/>
  <path id="Path_29331" data-name="Path 29331" d="M307.865,28.309c0,1.434.225,1.88.676,2.008a4.035,4.035,0,0,0,.869.1c.1,0,.161,0,.161.1s-.1.159-.322.159c-.966,0-1.674-.064-1.835-.064s-.9.064-1.674.064c-.161,0-.29,0-.29-.159s.064-.1.129-.1a2.535,2.535,0,0,0,.708-.1c.451-.127.547-.637.547-2.2V18.142c0-.669,0-.861.193-.861s.419.382.612.542c.193.191,2.865,3.092,5.538,5.96,1.739,1.849,3.606,3.952,4.185,4.526l-.193-8.829c0-1.116-.161-1.53-.676-1.657a4.035,4.035,0,0,0-.869-.1c-.129,0-.129-.064-.129-.127s.129-.127.354-.127h3.284c.193,0,.322,0,.322.127s-.064.127-.193.127a.96.96,0,0,0-.419.064c-.579.127-.644.478-.644,1.53V29.488c0,1.147,0,1.243-.161,1.243s-.354-.191-1.288-1.116c-.193-.159-2.7-2.709-4.539-4.717-2.028-2.167-3.992-4.367-4.54-4.972Z" transform="translate(-207.109 -11.774)" fill="#fff"/>
  <path id="Path_29332" data-name="Path 29332" d="M23.78,26.513c0,2.518.064,3.665.386,3.952.322.319.708.414,2.06.414.934,0,1.706,0,2.125-.51a2.554,2.554,0,0,0,.451-1.052c0-.127,0-.223.161-.223s.1.064.1.255A10.968,10.968,0,0,1,28.8,31.1c-.129.414-.161.478-1.062.478-2.511,0-3.67-.1-4.668-.1-.161,0-1.191.064-1.706.064-.193,0-.29,0-.29-.127s0-.1.129-.1a2.845,2.845,0,0,0,.515-.064c.354-.064.451-.446.515-.956.1-.733.1-2.1.1-3.761V19.756c0-.574-.161-.861-.74-.988a3.6,3.6,0,0,0-.612-.064c-.064,0-.129,0-.129-.1s.1-.127.29-.127H25c.193,0,.29,0,.29.127s-.064.1-.129.1a2.863,2.863,0,0,0-.547.064c-.515.1-.644.382-.676.988s0,1.052,0,3.761Z" transform="translate(-14.137 -12.592)" fill="#fff"/>
  <path id="Path_29333" data-name="Path 29333" d="M50.854,26.245a37.576,37.576,0,0,0,.1,3.761c.064.51.161.892.676.956.225,0,.612.064.773.064s.129.064.129.1c0,.064-.1.127-.29.127-.966,0-2.06-.064-2.125-.064-.1,0-1.191.064-1.706.064-.193,0-.258,0-.258-.127s0-.1.129-.1a2.845,2.845,0,0,0,.515-.064c.354-.064.451-.446.515-.956.1-.733.1-2.1.1-3.761V19.456c0-.574-.193-.892-.58-.988a3.2,3.2,0,0,0-.547-.064c-.064,0-.129,0-.129-.1s.064-.127.258-.127h3.477c.193,0,.29,0,.29.127s-.064.1-.129.1a1.9,1.9,0,0,0-.419.064c-.483.1-.612.382-.644.988s0,1.052,0,3.761Z" transform="translate(-32.648 -12.387)" fill="#fff"/>
  <path id="Path_29334" data-name="Path 29334" d="M78.878,28.436c.064.637.193,1.594.934,1.849a4.086,4.086,0,0,0,1.062.159c.1,0,.161,0,.161.1s-.161.159-.386.159c-.386,0-2.254-.064-2.9-.1-.419,0-.483-.1-.483-.191s0-.1.129-.1.1-.319.064-.637l-.837-8.988H76.56l-4.282,9.052c-.354.765-.419.924-.58.924s-.193-.159-.547-.8c-.451-.861-1.964-3.857-2.028-4.016-.1-.159-2.125-4.494-2.318-4.972h-.064L66.1,28.915v.892a.577.577,0,0,0,.451.542,2.474,2.474,0,0,0,.676.1c.064,0,.129,0,.129.1s-.1.159-.322.159c-.644,0-1.481-.064-1.61-.064-.161,0-1,.064-1.481.064-.161,0-.29,0-.29-.159s.064-.1.161-.1a1.4,1.4,0,0,0,.515,0c.58-.1.644-.8.708-1.466l1.32-11.347c0-.191.1-.319.193-.319s.161.064.258.255l5.344,10.9,5.119-10.9c.064-.159.129-.287.258-.287s.193.127.225.478Z" transform="translate(-43.158 -11.774)" fill="#fff"/>
  <path id="Path_29335" data-name="Path 29335" d="M156.439,17.381c3.928,0,6.858,2.454,6.858,6.5a6.841,6.841,0,0,1-6.6,7.108h-.386c-4.8,0-6.761-3.7-6.761-6.821a6.753,6.753,0,0,1,6.7-6.789Zm.386,12.972c1.578,0,4.8-.924,4.8-5.96,0-4.175-2.543-6.406-5.344-6.406s-5.087,1.912-5.087,5.737c0,4.048,2.447,6.661,5.634,6.63" transform="translate(-101.401 -11.842)" fill="#fff"/>
  <path id="Path_29336" data-name="Path 29336" d="M240.351,28.754h.064c.451-1.594,2.06-6.63,2.672-8.861a4.332,4.332,0,0,0,.258-1.116c0-.319-.193-.51-1-.51-.1,0-.161,0-.161-.127s.1-.127.29-.127h3.22c.161,0,.258,0,.258.1s0,.127-.161.127a2.04,2.04,0,0,0-.612.1c-.515.191-.8.924-1.127,1.88-.773,2.2-2.511,7.713-3.22,9.657-.451,1.307-.547,1.5-.708,1.5-.193,0-.29-.223-.547-.924l-3.413-9.657c-.644,1.689-3.026,8.032-3.638,9.657-.258.733-.386.924-.58.924s-.258-.191-.612-1.371L228.15,19.7c-.29-.892-.515-1.179-.934-1.371a3.275,3.275,0,0,0-.8-.1c-.1,0-.161,0-.161-.127s.1-.127.29-.127H230.4c.258,0,.322,0,.322.127s-.1.127-.161.127a2.474,2.474,0,0,0-.676.1.543.543,0,0,0-.225.414,13.971,13.971,0,0,0,.322,1.594c.258,1.116,2.125,7.49,2.318,8.414l3.7-9.912c.258-.7.322-.8.419-.8s.258.223.451.8Z" transform="translate(-153.408 -12.25)" fill="#fff"/>
  <path id="Path_29337" data-name="Path 29337" d="M291.351,26.245c0,1.689,0,3.028.064,3.761,0,.51.161.892.676.956.258,0,.644.064.773.064s.129.064.129.127-.1.127-.29.127c-.966,0-2.061-.064-2.125-.064-.1,0-1.191.064-1.706.064-.193,0-.29,0-.29-.127s0-.127.161-.127a2.845,2.845,0,0,0,.515-.064c.322-.064.419-.446.515-.956.064-.733.064-2.1.064-3.761V19.424c0-.574-.225-.892-.579-.956a2.863,2.863,0,0,0-.547-.064c-.064,0-.161,0-.161-.1s.1-.127.29-.127h3.477c.193,0,.29,0,.29.127s-.064.1-.129.1a1.9,1.9,0,0,0-.419.064c-.483.1-.612.382-.644.988s0,1.052,0,3.761Z" transform="translate(-195.651 -12.387)" fill="#fff"/>
  <path id="Path_29338" data-name="Path 29338" d="M359.143,26.443c0-1.434-.1-1.594-.8-1.817a3.582,3.582,0,0,0-.58-.064c-.064,0-.129,0-.129-.1s.1-.127.258-.127h3.7c.193,0,.29,0,.29.127s-.064.1-.161.1a1.9,1.9,0,0,0-.418.064c-.483.1-.612.382-.644,1.02-.032.606,0,1.052,0,1.817v1.944c0,.8,0,.829-.225.924a8.241,8.241,0,0,1-3.7.8A8.7,8.7,0,0,1,351,29.279a6.725,6.725,0,0,1-2.061-4.972,6.546,6.546,0,0,1,2.9-5.705,8.707,8.707,0,0,1,4.636-1.052,18.515,18.515,0,0,1,2.672.287A7.146,7.146,0,0,0,360.56,18c.161,0,.225.1.225.159a20.89,20.89,0,0,0-.129,2.454c0,.287,0,.382-.161.351-.161,0-.1-.1-.129-.255a2.44,2.44,0,0,0-.386-1.147c-.451-.637-1.835-1.4-4.089-1.4a5.6,5.6,0,0,0-3.735,1.147,5.576,5.576,0,0,0-1.739,4.4,6.864,6.864,0,0,0,1.867,4.813,6.381,6.381,0,0,0,4.572,1.88,4.374,4.374,0,0,0,2-.382.682.682,0,0,0,.354-.606Z" transform="translate(-236.593 -11.948)" fill="#fff"/>
  <path id="Path_29339" data-name="Path 29339" d="M119.6,23.149V19.388c0-.574-.161-.892-.74-.988a3.582,3.582,0,0,0-.58-.064c-.064,0-.129,0-.129-.1s.064-.127.258-.127h3.638c.193,0,.258,0,.258.127s-.064.1-.129.1a1.9,1.9,0,0,0-.419.064c-.483.1-.612.382-.644.988-.032.637,0,1.052,0,3.761V24.2h.064c.29-.351,3.445-3.538,4.089-4.239.483-.51.934-.956.934-1.275,0-.287-.1-.319-.225-.351s-.161-.064-.161-.159c0-.064.1-.1.225-.1h2.994c.193,0,.258,0,.258.1s0,.127-.161.127a2.209,2.209,0,0,0-1,.255,6.256,6.256,0,0,0-1.9,1.5c-.451.414-3.477,3.379-3.831,3.825.451.51,4.089,4.239,4.8,4.908a7.938,7.938,0,0,0,2.608,1.976,3.171,3.171,0,0,0,1.062.223c.129,0,.225,0,.225.1s-.1.127-.386.127h-2.093a3.554,3.554,0,0,1-2.125-1.052c-.8-.637-4.475-4.653-5.344-5.641h-.1V26.24c0,1.657,0,3.028.1,3.761.064.51.161.892.676.956.258,0,.515.064.676.064s.129,0,.129.1-.1.127-.29.127h-3.7c-.193,0-.29,0-.29-.127s0-.1.129-.1a2.845,2.845,0,0,0,.515-.064c.354-.064.419-.446.515-.956.1-.733.1-2.1.1-3.761Z" transform="translate(-80.112 -12.319)" fill="#fff"/>
  <path id="Path_29340" data-name="Path 29340" d="M192.931,23.149V19.388c0-.574-.193-.892-.773-.988a3.582,3.582,0,0,0-.58-.064c-.064,0-.129,0-.129-.1s.1-.127.29-.127h3.638c.193,0,.29,0,.29.127s-.064.1-.129.1a2.195,2.195,0,0,0-.451.064c-.483.1-.612.382-.644.988-.032.637,0,1.052,0,3.761V24.2h.064c.29-.351,3.445-3.538,4.057-4.239.483-.51.934-.956.934-1.275,0-.287-.1-.319-.225-.351s-.161-.064-.161-.159c0-.064.1-.1.225-.1h2.994c.193,0,.258,0,.258.1s0,.127-.193.127a2.209,2.209,0,0,0-1,.255,6.428,6.428,0,0,0-2,1.5c-.451.414-3.477,3.379-3.831,3.825.451.51,4.089,4.239,4.8,4.908,1.481,1.371,1.771,1.657,2.608,1.976a3.171,3.171,0,0,0,1.062.223c.129,0,.225,0,.225.1s-.1.127-.386.127h-2.093a3.554,3.554,0,0,1-2.125-1.052c-.8-.637-4.475-4.653-5.344-5.641h-.1V26.24c0,1.657,0,3.028.1,3.761,0,.51.129.892.676.956a4.85,4.85,0,0,0,.676.064c.1,0,.129,0,.129.1s-.1.127-.29.127h-3.67c-.193,0-.258,0-.258-.127s0-.1.129-.1a2.845,2.845,0,0,0,.515-.064c.354-.064.451-.446.515-.956.1-.733.1-2.1.1-3.761Z" transform="translate(-129.813 -12.319)" fill="#fff"/>
  <path id="Path_29341" data-name="Path 29341" d="M22.786,76.254V72.378q0-4.031-.045-4.758a1.2,1.2,0,0,0-.957-1.256,3.739,3.739,0,0,0-.757-.066q-.178,0-.178-.132,0-.176.356-.176.623,0,1.6.033t.913.033q4.627,0,5.095-.022a4.907,4.907,0,0,0,.957-.11.361.361,0,0,0,.144-.055.374.374,0,0,1,.167-.055c.059,0,.089.066.089.2a2.809,2.809,0,0,1-.067.375q-.067.308-.111.661-.022.595-.111,1.454c-.03.162-.082.242-.156.242q-.179,0-.178-.286a2.01,2.01,0,0,0-.134-.793q-.267-.595-1.579-.749-.6-.066-3.048-.066c-.089,0-.134.074-.134.22v6.079c0,.147.044.221.134.221q3.026,0,3.538-.044a1.7,1.7,0,0,0,1.068-.331q.244-.264.311-.264c.074,0,.111.059.111.176,0,.03-.022.162-.067.4q-.067.419-.111.837-.089.926-.089,1.377t-.156.452q-.156,0-.156-.2a2.5,2.5,0,0,0-.089-.727q-.2-.661-1.157-.771-1.046-.109-3.182-.11a.137.137,0,0,0-.156.154v5.7a1.873,1.873,0,0,0,.5,1.476,4.129,4.129,0,0,0,2.08.33,6.315,6.315,0,0,0,2.136-.242,1.92,1.92,0,0,0,1-1.586q.066-.331.2-.331t.133.331a8.572,8.572,0,0,1-.289,2.136q-.111.419-.311.5a3.128,3.128,0,0,1-.89.077q-2.025,0-3.771-.066l-1.724-.066-.879.033q-.9.033-1.3.033-.356,0-.356-.177c0-.088.07-.132.211-.132a3.433,3.433,0,0,0,.634-.088q.512-.11.645-1.212.111-.859.111-4.78" transform="translate(-14.137 -44.837)" fill="#fff"/>
  <path id="Path_29342" data-name="Path 29342" d="M55.317,80.816l4.027-6.3-3.56-5.925a3.489,3.489,0,0,0-1.936-1.806,2.794,2.794,0,0,0-.734-.11c-.134,0-.2-.051-.2-.155s.126-.154.379-.154.745.011,1.479.033l1.124.033.834-.033q.812-.033,1.257-.033c.252,0,.379.052.379.154s-.067.155-.2.155a2.049,2.049,0,0,0-.6.066.359.359,0,0,0-.267.374,1.6,1.6,0,0,0,.222.727q1.58,2.93,3,5.265.512-.7,1.814-2.764t1.457-2.412a1.9,1.9,0,0,0,.223-.793q0-.286-.378-.4a2.516,2.516,0,0,0-.667-.066c-.134,0-.2-.051-.2-.155s.126-.154.378-.154q.512,0,1.235.033l.745.033.723-.033q.7-.033,1.146-.033c.237,0,.356.052.356.154s-.082.155-.245.155a2.334,2.334,0,0,0-.734.11,4.663,4.663,0,0,0-1.713,1.784L61.08,73.9q2.114,3.547,4.7,7.688a2.717,2.717,0,0,0,1.313.991,2.791,2.791,0,0,0,.779.132c.118,0,.178.044.178.132q0,.176-.312.176-2.425,0-3.56-.044-.69-.022-.69-.176a.21.21,0,0,1,.167-.209q.167-.055.167-.3a.581.581,0,0,0-.089-.287q-1.491-2.665-3.827-6.564L56.43,81.279a1.876,1.876,0,0,0-.289.969.387.387,0,0,0,.356.418,2.1,2.1,0,0,0,.411.044c.126,0,.189.052.189.154s-.089.154-.267.154q-.312,0-1.191-.033t-.945-.033l-.8.033q-.779.033-1.224.033c-.148,0-.222-.052-.222-.154s.081-.139.245-.154a2.952,2.952,0,0,1,.356-.022,2.774,2.774,0,0,0,.734-.2,4.44,4.44,0,0,0,1.535-1.674" transform="translate(-35.562 -45.214)" fill="#fff"/>
  <path id="Path_29343" data-name="Path 29343" d="M104.238,76.254V72.378q0-4.031-.045-4.758a1.2,1.2,0,0,0-.957-1.256,3.739,3.739,0,0,0-.757-.066q-.178,0-.178-.132,0-.176.356-.176.623,0,1.6.033t.913.033q4.627,0,5.095-.022a4.907,4.907,0,0,0,.957-.11.361.361,0,0,0,.144-.055.374.374,0,0,1,.167-.055c.059,0,.089.066.089.2a2.809,2.809,0,0,1-.067.375q-.067.308-.111.661-.022.595-.111,1.454c-.03.162-.082.242-.155.242q-.179,0-.178-.286a2.01,2.01,0,0,0-.134-.793q-.267-.595-1.579-.749-.6-.066-3.048-.066c-.089,0-.134.074-.134.22v6.079c0,.147.044.221.134.221q3.026,0,3.538-.044a1.7,1.7,0,0,0,1.068-.331q.244-.264.311-.264c.074,0,.111.059.111.176,0,.03-.022.162-.067.4q-.067.419-.111.837-.089.926-.089,1.377t-.156.452q-.156,0-.156-.2a2.5,2.5,0,0,0-.089-.727q-.2-.661-1.157-.771-1.047-.109-3.182-.11a.137.137,0,0,0-.156.154v5.7a1.873,1.873,0,0,0,.5,1.476,4.129,4.129,0,0,0,2.08.33,6.315,6.315,0,0,0,2.136-.242,1.92,1.92,0,0,0,1-1.586q.066-.331.2-.331t.133.331a8.572,8.572,0,0,1-.289,2.136q-.111.419-.311.5a3.128,3.128,0,0,1-.89.077q-2.025,0-3.771-.066l-1.724-.066-.879.033q-.9.033-1.3.033-.356,0-.356-.177c0-.088.07-.132.211-.132a3.432,3.432,0,0,0,.634-.088q.512-.11.645-1.212.111-.859.111-4.78" transform="translate(-69.366 -44.837)" fill="#fff"/>
  <path id="Path_29344" data-name="Path 29344" d="M145.476,82.668a10.657,10.657,0,0,1-7.354-2.39,8.866,8.866,0,0,1-2.168-9.329,8.164,8.164,0,0,1,1.986-3.194q2.388-2.357,6.806-2.357a18.121,18.121,0,0,1,3.236.265,20.4,20.4,0,0,0,2.277.33q.29.023.29.243a4.018,4.018,0,0,1-.062.418,7.676,7.676,0,0,0-.093.815q-.023.97-.067,2.269-.023.462-.2.462t-.178-.462a2.784,2.784,0,0,0-.934-2.247,6.767,6.767,0,0,0-4.45-1.256,7.182,7.182,0,0,0-5.117,1.608q-2,1.917-2,5.749a7.9,7.9,0,0,0,2.225,5.617,7.705,7.705,0,0,0,5.807,2.445q2.8,0,3.871-1.1a3.478,3.478,0,0,0,.824-1.85q.067-.33.222-.331c.1,0,.156.11.156.331q0,.176-.156,1.189a13.342,13.342,0,0,1-.323,1.619.965.965,0,0,1-.59.65,11.494,11.494,0,0,1-4.005.506" transform="translate(-91.836 -44.555)" fill="#fff"/>
  <path id="Path_29345" data-name="Path 29345" d="M186.527,75.97V72.754q0-4.031-.045-4.758a1.2,1.2,0,0,0-.957-1.255,3.714,3.714,0,0,0-.757-.066c-.119,0-.178-.044-.178-.132q0-.176.356-.176.6,0,2.559.066.044,0,.923-.033t1.279-.033c.237,0,.356.059.356.176,0,.088-.048.132-.145.132a5.132,5.132,0,0,0-.59.066q-.757.11-.823,1.255-.045.727-.044,4.758v3.084q0,3.878,1.669,5.441a4.71,4.71,0,0,0,3.36,1.212,4.287,4.287,0,0,0,3.483-1.575q1.3-1.574,1.3-5.408V72.754q0-4.031-.045-4.758a1.2,1.2,0,0,0-.957-1.255,3.714,3.714,0,0,0-.757-.066c-.119,0-.178-.044-.178-.132q0-.176.356-.176.6,0,1.5.033t.857.033l.745-.033q.723-.033,1.124-.033c.237,0,.356.059.356.176,0,.088-.067.132-.2.132a2.909,2.909,0,0,0-.534.066q-.757.154-.823,1.255-.045.727-.044,4.758v2.357q0,4.78-2.047,6.587a6.675,6.675,0,0,1-4.584,1.63,6.434,6.434,0,0,1-4.583-1.564q-1.936-1.828-1.936-5.794" transform="translate(-125.162 -45.214)" fill="#fff"/>
  <path id="Path_29346" data-name="Path 29346" d="M245.472,66.654v9.318q0,3.811.111,4.78.133,1.1.868,1.211a7.929,7.929,0,0,0,1,.088c.118,0,.178.044.178.132q0,.176-.356.177-.756,0-1.791-.033t-.946-.033l-.879.033q-.9.033-1.3.033-.356,0-.356-.177c0-.088.07-.132.212-.132a3.435,3.435,0,0,0,.634-.088q.511-.11.645-1.211.112-.859.111-4.78V66.654l-3.293.044a9.593,9.593,0,0,0-1.246.088,1.567,1.567,0,0,0-1.023.617l-.267.529c-.133.25-.245.374-.334.374s-.112-.066-.112-.2a10.4,10.4,0,0,1,.49-2.291c.074-.279.148-.418.223-.418a1.807,1.807,0,0,1,.334.121,1.959,1.959,0,0,0,.645.143q1.246.11,1.758.11h8.344a11.24,11.24,0,0,0,1.569-.1,6.317,6.317,0,0,0,.634-.1c.074,0,.111.087.111.262q0,.372-.033,1.356t-.033,1.049q0,.284-.156.284-.133,0-.178-.374l-.022-.243q-.112-1.167-2.737-1.211Z" transform="translate(-160.92 -44.555)" fill="#fff"/>
  <path id="Path_29347" data-name="Path 29347" d="M288.1,72.754v3.877q0,3.812.111,4.78.134,1.1.868,1.211a7.927,7.927,0,0,0,1,.088c.118,0,.178.044.178.132q0,.176-.356.176-.757,0-1.791-.033t-.946-.033l-.879.033q-.9.033-1.3.033-.356,0-.356-.176c0-.088.07-.132.211-.132a3.432,3.432,0,0,0,.634-.088q.511-.11.645-1.211.112-.859.112-4.78V72.754q0-4.031-.045-4.758-.067-1.057-.756-1.233a3.073,3.073,0,0,0-.69-.088q-.178,0-.178-.132,0-.176.356-.176.445,0,1.358.033l.89.033.879-.033q.9-.033,1.3-.033.356,0,.356.176,0,.132-.178.132a3.626,3.626,0,0,0-.556.066q-.757.132-.823,1.255-.045.727-.044,4.758" transform="translate(-192.949 -45.214)" fill="#fff"/>
  <path id="Path_29348" data-name="Path 29348" d="M307.387,69.054l4.272,11.278q.935-2.158,2.67-6.63,1.713-4.362,2.092-5.6a3.726,3.726,0,0,0,.2-.837.464.464,0,0,0-.278-.485,2.492,2.492,0,0,0-.857-.11q-.245,0-.245-.132,0-.176.489-.176.534,0,1.335.033t.846.033q1.357-.066,1.736-.066c.252,0,.378.052.378.154s-.089.154-.267.154a1.915,1.915,0,0,0-1.068.264,4.89,4.89,0,0,0-1.224,2.071q-.356.9-2.492,5.969-2.292,5.463-2.871,6.674l-.623,1.322q-.179.352-.311.353-.179,0-.334-.287a9.328,9.328,0,0,1-.467-1.079l-5.452-13.5a4.114,4.114,0,0,0-.69-1.233,2.107,2.107,0,0,0-.912-.462,3.23,3.23,0,0,0-.845-.088q-.178,0-.178-.154t.579-.154q.645,0,1.613.033l.99.033q.044,0,.812-.033t1.257-.033q.6,0,.6.154,0,.132-.267.176h-.4a1.166,1.166,0,0,0-.4.088.453.453,0,0,0-.289.441,10.489,10.489,0,0,0,.6,1.828" transform="translate(-204.969 -45.214)" fill="#fff"/>
  <path id="Path_29349" data-name="Path 29349" d="M360.47,76.254V72.378q0-4.031-.045-4.758a1.2,1.2,0,0,0-.957-1.256,3.739,3.739,0,0,0-.757-.066q-.178,0-.178-.132,0-.176.356-.176.623,0,1.6.033t.913.033q4.627,0,5.095-.022a4.907,4.907,0,0,0,.957-.11.361.361,0,0,0,.144-.055.374.374,0,0,1,.167-.055c.059,0,.089.066.089.2a2.813,2.813,0,0,1-.067.375q-.067.308-.111.661-.022.595-.111,1.454c-.03.162-.082.242-.155.242q-.179,0-.178-.286a2.01,2.01,0,0,0-.134-.793q-.267-.595-1.579-.749-.6-.066-3.048-.066c-.089,0-.134.074-.134.22v6.079c0,.147.044.221.134.221q3.026,0,3.538-.044a1.7,1.7,0,0,0,1.068-.331q.244-.264.311-.264c.074,0,.111.059.111.176,0,.03-.022.162-.067.4q-.067.419-.111.837-.089.926-.089,1.377t-.155.452q-.156,0-.156-.2a2.5,2.5,0,0,0-.089-.727q-.2-.661-1.157-.771-1.046-.109-3.182-.11a.137.137,0,0,0-.155.154v5.7a1.873,1.873,0,0,0,.5,1.476,4.129,4.129,0,0,0,2.08.33,6.314,6.314,0,0,0,2.136-.242,1.92,1.92,0,0,0,1-1.586q.066-.331.2-.331t.133.331a8.575,8.575,0,0,1-.289,2.136q-.111.419-.311.5a3.129,3.129,0,0,1-.89.077q-2.024,0-3.771-.066l-1.724-.066-.879.033q-.9.033-1.3.033-.356,0-.356-.177c0-.088.07-.132.211-.132a3.432,3.432,0,0,0,.634-.088q.512-.11.645-1.212.111-.859.111-4.78" transform="translate(-243.103 -44.837)" fill="#fff"/>
</svg>
