<svg xmlns="http://www.w3.org/2000/svg" xmlns:xlink="http://www.w3.org/1999/xlink" width="347.173" height="772.769" viewBox="0 0 347.173 772.769">
  <defs>
    <linearGradient id="linear-gradient" x1="0.156" y1="-0.244" x2="0.606" y2="0.89" gradientUnits="objectBoundingBox">
      <stop offset="0" stop-color="#fff"/>
      <stop offset="1" stop-color="gray" stop-opacity="0"/>
    </linearGradient>
  </defs>
  <path id="Path_36323" data-name="Path 36323" d="M30.015,706.682H61.233v36.931H30.015Zm31.865,0H93.1v36.931H61.88Zm31.866,0h31.219v36.931H93.746Zm31.865,0H156.83v36.931H125.611Zm31.867,0H188.7v36.931H157.477Zm31.865,0h31.219v36.931H189.343Zm31.866,0h31.219v36.931H221.208Zm31.865,0h31.219v36.931H253.074Zm31.866,0h31.219v36.931H284.94Zm-254.925-37.7H61.233v36.931H30.015Zm31.865,0H93.1v36.931H61.88Zm31.866,0h31.219v36.931H93.746Zm31.865,0H156.83v36.931H125.611Zm31.867,0H188.7v36.931H157.477Zm31.865,0h31.219v36.931H189.343Zm31.866,36.931V668.987h31.219v36.932Zm31.865-36.931h31.219v36.932H253.074Zm31.866,0h31.219v36.932H284.94Zm-127.462-37.7H188.7v36.931H157.477Zm31.865,0h31.219v36.931H189.343Zm31.866,0h31.219v36.931H221.208Zm31.865,0h31.219v36.931H253.074Zm31.866,0h31.219v36.931H284.94Zm-254.925,0H61.233v36.932H30.015Zm31.865,0H93.1v36.932H61.88Zm31.866,0h31.219v36.932H93.746Zm31.865,0h31.22v36.931h-31.22Zm-95.6-37.7H61.233v36.932H30.015Zm31.865,0H93.1v36.932H61.88Zm31.866,0h31.219v36.932H93.746Zm31.865,0H156.83v36.932H125.611Zm31.867,0H188.7v36.932H157.477Zm31.865,0h31.219v36.932H189.343Zm31.866,0h31.219v36.932H221.208Zm31.865,0h31.219v36.932H253.074Zm31.866,0h31.219v36.932H284.94ZM30.015,555.9H61.233V592.83H30.015Zm31.865,0H93.1V592.83H61.88Zm31.866,0h31.219V592.83H93.746Zm31.865,0H156.83V592.83H125.611Zm31.867,0H188.7V592.83H157.477Zm31.865,0h31.219V592.83H189.343Zm31.866,0h31.219V592.83H221.208Zm31.865,0h31.219V592.83H253.074Zm31.866,0h31.219V592.83H284.94ZM30.015,518.2H61.233v36.931H30.015Zm31.865,0H93.1v36.931H61.88Zm31.866,0h31.219v36.931H93.746Zm31.865,36.931V518.2h31.22v36.932ZM157.477,518.2H188.7v36.932H157.477Zm31.865,0h31.219v36.932H189.343Zm31.866,0h31.219v36.932H221.208Zm31.865,0h31.219v36.932H253.074Zm31.866,0h31.219v36.932H284.94Zm-159.329-37.7H156.83v36.931H125.611Zm31.867,0H188.7v36.931H157.477Zm31.865,0h31.219v36.931H189.343Zm31.866,0h31.219v36.931H221.208Zm31.865,0h31.219v36.931H253.074Zm31.866,0h31.219v36.931H284.94Zm-254.925,0H61.233v36.932H30.015Zm31.865,0H93.1v36.932H61.88Zm31.866,0h31.219v36.932H93.746Zm-63.731-37.7H61.233v36.932H30.015Zm31.865,0H93.1v36.932H61.88Zm31.866,0h31.219v36.932H93.746Zm31.865,0H156.83v36.932H125.611Zm31.867,0H188.7v36.932H157.477Zm31.865,0h31.219v36.932H189.343Zm31.866,0h31.219v36.932H221.208Zm31.865,0h31.219v36.932H253.074Zm31.866,0h31.219v36.932H284.94Zm-254.925-37.7H61.233v36.931H30.015Zm31.865,0H93.1v36.931H61.88Zm31.866,0h31.219v36.931H93.746Zm31.865,0H156.83v36.931H125.611Zm31.867,0H188.7v36.931H157.477Zm31.865,0h31.219v36.931H189.343Zm31.866,0h31.219v36.931H221.208Zm31.865,0h31.219v36.931H253.074Zm31.866,0h31.219v36.931H284.94Zm-254.925-37.7H61.233V404.35H30.015Zm31.865,0H93.1V404.35H61.88Zm31.866,0h31.219V404.35H93.746Zm31.865,0H156.83V404.35H125.611Zm31.867,0H188.7V404.35H157.477Zm31.865,0h31.219V404.35H189.343Zm31.866,0h31.219V404.35H221.208Zm31.865,0h31.219V404.35H253.074Zm31.866,0h31.219V404.35H284.94Zm-254.925-37.7H61.233v36.931H30.015Zm31.865,0H93.1v36.931H61.88Zm31.866,0h31.219v36.931H93.746Zm31.865,0H156.83v36.931H125.611Zm31.867,0H188.7v36.931H157.477Zm31.865,0h31.219v36.931H189.343Zm31.866,0h31.219v36.931H221.208Zm31.865,0h31.219v36.931H253.074Zm31.866,0h31.219v36.931H284.94Zm-254.925-37.7H61.233v36.931H30.015Zm31.865,0H93.1v36.931H61.88Zm31.866,0h31.219v36.931H93.746Zm31.865,0H156.83v36.931H125.611Zm31.867,0H188.7v36.931H157.477Zm31.865,36.931V292.027h31.219v36.931Zm31.866-36.931h31.219v36.931H221.208Zm31.865,0h31.219v36.931H253.074Zm31.866,0h31.219v36.931H284.94Zm-223.06-37.7H93.1v36.931H61.88Zm31.866,0h31.219v36.931H93.746Zm31.865,0H156.83v36.931H125.611Zm31.867,0H188.7v36.931H157.477Zm31.865,0h31.219v36.931H189.343Zm31.866,0h31.219v36.931H221.208Zm31.865,0h31.219v36.931H253.074Zm31.866,0h31.219v36.931H284.94Zm-254.925,0H61.233v36.931H30.015Zm0-37.7H61.233v36.932H30.015Zm31.865,0H93.1v36.932H61.88Zm31.866,0h31.219v36.932H93.746Zm31.865,0H156.83v36.932H125.611Zm31.867,0H188.7v36.932H157.477Zm31.865,0h31.219v36.932H189.343Zm31.866,0h31.219v36.932H221.208Zm31.865,0h31.219v36.932H253.074Zm31.866,0h31.219v36.932H284.94Zm-254.925-37.7H61.233v36.932H30.015Zm31.865,0H93.1v36.932H61.88Zm31.866,0h31.219v36.932H93.746Zm31.865,0H156.83v36.932H125.611Zm31.867,0H188.7v36.932H157.477Zm31.865,0h31.219v36.932H189.343Zm31.866,0h31.219v36.932H221.208Zm31.865,0h31.219v36.932H253.074Zm31.866,0h31.219v36.932H284.94Zm-254.925-37.7H61.233v36.932H30.015Zm31.865,0H93.1v36.932H61.88Zm31.866,0h31.219v36.932H93.746Zm31.865,0H156.83v36.932H125.611Zm31.867,0H188.7v36.932H157.477Zm31.865,0h31.219v36.932H189.343Zm31.866,0h31.219v36.932H221.208Zm31.865,0h31.219v36.932H253.074Zm31.866,0h31.219v36.932H284.94Zm-254.925-37.7H61.233v36.932H30.015Zm31.865,0H93.1v36.932H61.88Zm31.866,0h31.219v36.932H93.746Zm31.865,0H156.83v36.932H125.611Zm31.867,0H188.7v36.932H157.477Zm31.865,0h31.219v36.932H189.343Zm31.866,0h31.219v36.932H221.208Zm31.865,0h31.219v36.932H253.074Zm31.866,0h31.219v36.932H284.94ZM30.015,65.852H61.233v36.931H30.015Zm31.865,0H93.1v36.931H61.88Zm31.866,0h31.219v36.931H93.746Zm31.865,0H156.83v36.931H125.611Zm31.867,0H188.7v36.931H157.477Zm31.865,0h31.219v36.931H189.343Zm31.866,0h31.219v36.931H221.208Zm31.865,0h31.219v36.931H253.074Zm31.866,0h31.219v36.931H284.94ZM30.015,28.156H61.233V65.087H30.015Zm31.865,0H93.1V65.087H61.88Zm31.866,0h31.219V65.087H93.746Zm31.865,0H156.83V65.087H125.611Zm31.867,0H188.7V65.087H157.477Zm31.865,0h31.219V65.087H189.343Zm31.866,0h31.219V65.087H221.208Zm31.865,0h31.219V65.087H253.074Zm31.866,0h31.219V65.087H284.94ZM316.159,0V27.391H284.94V0h-.646V27.391H253.074V0h-.646V27.391H221.208V0h-.646V27.391H189.343V0H188.7V27.391H157.477V0h-.646V27.391h-31.22V0h-.646V27.391H93.746V0H93.1V27.391H61.88V0h-.646V27.391H30.015V0h-.646V27.391H0v.765H29.368V65.087H0v.765H29.368v36.931H0v.765H29.368v36.932H0v.764H29.368v36.932H0v.765H29.368v36.932H0v.764H29.368v36.932H0v.765H29.368v36.931H0v.765H29.368v36.931H0v.765H29.368v36.932H0v.764H29.368V404.35H0v.765H29.368v36.932H0v.764H29.368v36.932H0v.764H29.368v36.932H0v.765H29.368v36.931H0v.765H29.368v36.932H0v.764H29.368v36.932H0v.764H29.368v36.932H0v.765H29.368v36.931H0v.765H29.368v36.932H0v.764H29.368v27.391h.646V744.379H61.233v27.391h.646V744.379H93.1v27.391h.646V744.379h31.219v27.391h.646V744.379h31.22v27.391h.646V744.379H188.7v27.391h.646V744.379h31.219v27.391h.646V744.379h31.219v27.391h.646V744.379h31.219v27.391h.646V744.379h31.219v27.391h.646V744.379h29.367v-.764H316.805V706.682h29.367v-.764H316.805V668.987h29.367v-.765H316.805V631.291h29.367v-.765H316.805V593.595h29.367v-.764H316.805V555.9h29.367v-.764H316.805V518.2h29.367v-.765H316.805V480.507h29.367v-.765H316.805V442.81h29.367v-.764H316.805V405.115h29.367v-.765H316.805V367.419h29.367v-.764H316.805V329.723h29.367v-.764H316.805V292.027h29.367v-.765H316.805V254.331h29.367v-.765H316.805V216.635h29.367v-.764H316.805V178.939h29.367v-.765H316.805V141.243h29.367v-.764H316.805V103.548h29.367v-.765H316.805V65.852h29.367v-.765H316.805V28.156h29.367v-.765H316.805V0Z" transform="translate(0.5 0.5)" stroke="rgba(0,0,0,0)" stroke-miterlimit="10" stroke-width="1" opacity="0.6" fill="url(#linear-gradient)"/>
</svg>
