<svg xmlns="http://www.w3.org/2000/svg" xmlns:xlink="http://www.w3.org/1999/xlink" width="18" height="18" viewBox="0 0 18 18">
  <defs>
    <clipPath id="clip-path">
      <rect id="Rectangle_560" data-name="Rectangle 560" width="17.738" height="18" fill="#fff"/>
    </clipPath>
  </defs>
  <g id="Group_26117" data-name="Group 26117" transform="translate(0.041 0.1)">
    <g id="Group_26115" data-name="Group 26115" transform="translate(-0.041 -0.1)" opacity="0">
      <g id="Group_26114" data-name="Group 26114">
        <g id="Group_26113" data-name="Group 26113" clip-path="url(#clip-path)">
          <rect id="Rectangle_559" data-name="Rectangle 559" width="17.738" height="18" transform="translate(0 0)" fill="#fff"/>
        </g>
      </g>
    </g>
    <path id="Path_28916" data-name="Path 28916" d="M87.959,6.726a7.372,7.372,0,0,1-2.116.58,3.693,3.693,0,0,0,1.62-2.036,7.381,7.381,0,0,1-2.34.893,3.687,3.687,0,0,0-6.279,3.357A10.463,10.463,0,0,1,71.25,5.674a3.682,3.682,0,0,0,1.14,4.914,3.677,3.677,0,0,1-1.669-.46c0,.015,0,.031,0,.046a3.685,3.685,0,0,0,2.956,3.609,3.7,3.7,0,0,1-1.664.063A3.688,3.688,0,0,0,75.455,16.4a7.4,7.4,0,0,1-4.576,1.576A7.526,7.526,0,0,1,70,17.926,10.481,10.481,0,0,0,86.132,9.107q0-.239-.01-.476A7.484,7.484,0,0,0,87.959,6.726Z" transform="translate(-70.001 -3.178)" fill="#fff"/>
  </g>
</svg>
